<svg width="23" height="23" viewBox="0 0 23 23" fill="none" xmlns="http://www.w3.org/2000/svg">
<path d="M22.6134 19.885L18.3291 15.4067C18.1357 15.2046 17.8736 15.0923 17.5986 15.0923H16.8981C18.0842 13.5067 18.7889 11.5124 18.7889 9.34284C18.7889 4.18182 14.7882 0 9.85075 0C4.91328 0 0.912598 4.18182 0.912598 9.34284C0.912598 14.5039 4.91328 18.6857 9.85075 18.6857C11.9263 18.6857 13.8342 17.949 15.3512 16.7093V17.4415C15.3512 17.7289 15.4586 18.0029 15.652 18.2051L19.9363 22.6833C20.3402 23.1056 20.9934 23.1056 21.393 22.6833L22.6091 21.4122C23.013 20.9899 23.013 20.3072 22.6134 19.885ZM9.85075 15.0923C6.81264 15.0923 4.35035 12.523 4.35035 9.34284C4.35035 6.16717 6.80834 3.5934 9.85075 3.5934C12.8889 3.5934 15.3512 6.16268 15.3512 9.34284C15.3512 12.5185 12.8932 15.0923 9.85075 15.0923Z" fill="black"/>
</svg>
